<svg width="107" height="35" viewBox="0 0 107 35" fill="none" xmlns="http://www.w3.org/2000/svg">
<path d="M39.3633 11.9375L43.3242 20.082L47.2852 11.9375H50.543L44.8008 22.7188V29H41.8359V22.7188L36.0938 11.9375H39.3633ZM55.1484 16.3203V29H52.3125V16.3203H55.1484ZM52.125 12.9922C52.125 12.5625 52.2656 12.207 52.5469 11.9258C52.8359 11.6367 53.2344 11.4922 53.7422 11.4922C54.2422 11.4922 54.6367 11.6367 54.9258 11.9258C55.2148 12.207 55.3594 12.5625 55.3594 12.9922C55.3594 13.4141 55.2148 13.7656 54.9258 14.0469C54.6367 14.3281 54.2422 14.4688 53.7422 14.4688C53.2344 14.4688 52.8359 14.3281 52.5469 14.0469C52.2656 13.7656 52.125 13.4141 52.125 12.9922ZM61.043 19.0273V29H58.2188V16.3203H60.8789L61.043 19.0273ZM60.5391 22.1914L59.625 22.1797C59.6328 21.2812 59.7578 20.457 60 19.707C60.25 18.957 60.5938 18.3125 61.0312 17.7734C61.4766 17.2344 62.0078 16.8203 62.625 16.5312C63.2422 16.2344 63.9297 16.0859 64.6875 16.0859C65.2969 16.0859 65.8477 16.1719 66.3398 16.3438C66.8398 16.5078 67.2656 16.7773 67.6172 17.1523C67.9766 17.5273 68.25 18.0156 68.4375 18.6172C68.625 19.2109 68.7188 19.9414 68.7188 20.8086V29H65.8828V20.7969C65.8828 20.1875 65.793 19.707 65.6133 19.3555C65.4414 18.9961 65.1875 18.7422 64.8516 18.5938C64.5234 18.4375 64.1133 18.3594 63.6211 18.3594C63.1367 18.3594 62.7031 18.4609 62.3203 18.6641C61.9375 18.8672 61.6133 19.1445 61.3477 19.4961C61.0898 19.8477 60.8906 20.2539 60.75 20.7148C60.6094 21.1758 60.5391 21.668 60.5391 22.1914ZM83.2617 20.5859V22.8359H77.0625V20.5859H83.2617ZM96.9492 29H93.3047L93.3281 26.668H96.9492C98.0039 26.668 98.8867 26.4375 99.5977 25.9766C100.316 25.5156 100.855 24.8555 101.215 23.9961C101.582 23.1367 101.766 22.1133 101.766 20.9258V20C101.766 19.0781 101.66 18.2617 101.449 17.5508C101.246 16.8398 100.941 16.2422 100.535 15.7578C100.137 15.2734 99.6445 14.9062 99.0586 14.6562C98.4805 14.4062 97.8125 14.2812 97.0547 14.2812H93.2344V11.9375H97.0547C98.1875 11.9375 99.2227 12.1289 100.16 12.5117C101.098 12.8867 101.906 13.4297 102.586 14.1406C103.273 14.8516 103.801 15.7031 104.168 16.6953C104.535 17.6875 104.719 18.7969 104.719 20.0234V20.9258C104.719 22.1523 104.535 23.2617 104.168 24.2539C103.801 25.2461 103.273 26.0977 102.586 26.8086C101.898 27.5117 101.078 28.0547 100.125 28.4375C99.1797 28.8125 98.1211 29 96.9492 29ZM94.9336 11.9375V29H91.9922V11.9375H94.9336Z" fill="white"/>
<ellipse cx="11.5" cy="7" rx="6.9" ry="7" fill="white"/>
<ellipse cx="16.1" cy="14" rx="6.9" ry="7" fill="white"/>
<ellipse cx="14.95" cy="29.1667" rx="5.75" ry="5.83333" fill="#3BD77A"/>
<ellipse cx="6.9" cy="14" rx="6.9" ry="7" fill="white"/>
<ellipse cx="8.04999" cy="29.1667" rx="5.75" ry="5.83333" fill="#3BD77A"/>
<ellipse cx="11.5" cy="11.6667" rx="4.6" ry="4.66667" fill="#FFB800"/>
</svg>
